<svg width="14" height="19" viewBox="0 0 14 19" fill="none" xmlns="http://www.w3.org/2000/svg">
<path d="M9.69067 1.20466C10.2502 1.77938 10.6311 2.51143 10.7852 3.30827C10.9394 4.10511 10.8599 4.93097 10.5568 5.68146C10.2537 6.43195 9.74059 7.07336 9.08234 7.52463C8.4241 7.97589 7.65027 8.21675 6.85867 8.21675C6.06707 8.21675 5.29324 7.97589 4.635 7.52463C3.97675 7.07336 3.46365 6.43195 3.16055 5.68146C2.85745 4.93097 2.77796 4.10511 2.93212 3.30827C3.08628 2.51143 3.46718 1.77938 4.02667 1.20466C4.39845 0.822759 4.83992 0.519799 5.32586 0.313096C5.81179 0.106392 6.33265 0 6.85867 0C7.38469 0 7.90555 0.106392 8.39148 0.313096C8.87742 0.519799 9.31889 0.822759 9.69067 1.20466Z" fill="#ABB7D0"/>
<path d="M13.7251 18.4673V16.356C13.7249 15.1317 13.2508 13.9577 12.4072 13.0921C11.5636 12.2265 10.4195 11.7402 9.22656 11.7402H4.49856C3.30563 11.7402 2.16155 12.2265 1.31794 13.0921C0.474321 13.9577 0.000254572 15.1317 0 16.356V18.4673" fill="#ABB7D0"/>
</svg>
