<svg width="76" height="36" viewBox="0 0 76 36" fill="none" xmlns="http://www.w3.org/2000/svg">
<g filter="url(#filter0_d_3973_7138)">
<rect x="4" width="67.0259" height="22.7149" rx="10" fill="#F0F4FA"/>
<path d="M16.6366 22.0036L20.8456 22.014L25.2558 22.0352L11.9044 27.7859L16.6366 22.0036Z" fill="#F0F4FA"/>
<path d="M27.8367 7.83691V9.60352H28.9441V10.4121H27.8367V12.082H26.8611V7.83691H27.8367ZM25.4373 8.3291V9.12012H22.8709V11.0713C24.365 11.0669 25.1956 11.0229 26.1404 10.8164L26.2459 11.6074C25.2087 11.8271 24.2771 11.8711 22.5457 11.8711H21.9041V8.3291H25.4373ZM23.6619 12.4775V13.2949H26.8611V12.4775H27.8367V15.668H22.6863V12.4775H23.6619ZM23.6619 14.877H26.8611V14.0684H23.6619V14.877ZM36.0017 7.8457V13.708H35.0261V11.7129H33.4265V12.416H29.7087V8.36426H30.6843V9.64746H32.4597V8.36426H33.4265V9.2168H35.0261V7.8457H36.0017ZM36.1775 14.833V15.624H30.7634V13.1279H31.7566V14.833H36.1775ZM30.6843 11.6426H32.4597V10.4033H30.6843V11.6426ZM33.4265 10.9219H35.0261V10.0078H33.4265V10.9219ZM39.5261 8.17969C40.6863 8.17969 41.5125 8.82129 41.5212 9.7793C41.5125 10.5659 40.9192 11.1592 40.0359 11.3262V11.9678C40.6951 11.9326 41.3586 11.8711 41.9783 11.7832L42.0574 12.4951C40.405 12.7939 38.5593 12.8203 37.2146 12.8203L37.1091 12.0381C37.6804 12.0425 38.3484 12.0381 39.0515 12.0117V11.3262C38.1418 11.1768 37.531 10.5791 37.5398 9.7793C37.531 8.82129 38.3572 8.17969 39.5261 8.17969ZM39.5261 8.92676C38.8933 8.92676 38.4451 9.24316 38.4539 9.7793C38.4451 10.2979 38.8933 10.623 39.5261 10.6318C40.1589 10.623 40.5896 10.2979 40.5984 9.7793C40.5896 9.24316 40.1589 8.92676 39.5261 8.92676ZM43.4197 7.8457V10.4121H44.4919V11.2207H43.4197V13.9102H42.4441V7.8457H43.4197ZM43.7009 14.8242V15.6152H38.199V13.374H39.1746V14.8242H43.7009ZM52.1648 14.0508V14.8594H44.905V14.0508H46.8298V12.7412H45.7664V10.1484H50.3367V9.17285H45.7488V8.38184H51.3035V10.9307H46.7419V11.9502H51.488V12.7412H50.3279V14.0508H52.1648ZM47.7791 14.0508H49.3699V12.7412H47.7791V14.0508Z" fill="black"/>
</g>
<defs>
<filter id="filter0_d_3973_7138" x="0" y="0" width="75.0273" height="35.7861" filterUnits="userSpaceOnUse" color-interpolation-filters="sRGB">
<feFlood flood-opacity="0" result="BackgroundImageFix"/>
<feColorMatrix in="SourceAlpha" type="matrix" values="0 0 0 0 0 0 0 0 0 0 0 0 0 0 0 0 0 0 127 0" result="hardAlpha"/>
<feOffset dy="4"/>
<feGaussianBlur stdDeviation="2"/>
<feComposite in2="hardAlpha" operator="out"/>
<feColorMatrix type="matrix" values="0 0 0 0 0 0 0 0 0 0 0 0 0 0 0 0 0 0 0.09 0"/>
<feBlend mode="normal" in2="BackgroundImageFix" result="effect1_dropShadow_3973_7138"/>
<feBlend mode="normal" in="SourceGraphic" in2="effect1_dropShadow_3973_7138" result="shape"/>
</filter>
</defs>
</svg>
