<svg width="112" height="155" viewBox="0 0 112 155" fill="none" xmlns="http://www.w3.org/2000/svg">
<path d="M31.7333 22.7246H7.46667C6.54725 22.7246 5.66549 23.1 5.01536 23.7682C4.36524 24.4365 4 25.3428 4 26.2878V147.437C4 148.382 4.36524 149.288 5.01536 149.956C5.66549 150.624 6.54725 151 7.46667 151H104.533C105.453 151 106.335 150.624 106.985 149.956C107.635 149.288 108 148.382 108 147.437V26.2878C108 25.3428 107.635 24.4365 106.985 23.7682C106.335 23.1 105.453 22.7246 104.533 22.7246H80.2667" stroke="#B6BEC9" stroke-width="8"/>
<path d="M31.7305 40.5392V22.7232H45.4238C45.4698 22.7232 45.5139 22.7045 45.5464 22.6711C45.5789 22.6376 45.5971 22.5923 45.5971 22.5451V15.5968C45.5971 14.1931 45.8661 12.803 46.3888 11.5061C46.9114 10.2092 47.6775 9.03076 48.6432 8.03814C49.609 7.04552 50.7554 6.25813 52.0172 5.72092C53.279 5.18372 54.6314 4.90723 55.9971 4.90723C57.3629 4.90723 58.7153 5.18372 59.977 5.72092C61.2388 6.25813 62.3853 7.04552 63.351 8.03814C64.3168 9.03076 65.0828 10.2092 65.6055 11.5061C66.1281 12.803 66.3971 14.1931 66.3971 15.5968V22.5451C66.3971 22.6448 66.4734 22.7232 66.5705 22.7232H80.2638V40.5392C80.2638 41.4843 79.8986 42.3906 79.2484 43.0588C78.5983 43.727 77.7166 44.1025 76.7971 44.1025H35.1971C34.2777 44.1025 33.396 43.727 32.7458 43.0588C32.0957 42.3906 31.7305 41.4843 31.7305 40.5392Z" stroke="#B6BEC9" stroke-width="8"/>
<path d="M38.7828 112.718H38.7805H23.0874C22.102 112.718 21.3004 112.39 20.6481 111.735C19.9949 111.08 19.6664 110.277 19.6641 109.294C19.6618 108.312 19.9895 107.511 20.6469 106.856C21.3053 106.199 22.1079 105.871 23.0874 105.871H38.7805C39.7659 105.871 40.5692 106.2 41.2242 106.855C41.8792 107.51 42.2061 108.311 42.2037 109.294C42.2014 110.277 41.8728 111.081 41.2191 111.74C40.5673 112.396 39.7669 112.723 38.7828 112.718ZM62.3225 93.1016H62.3201H23.0874C22.102 93.1016 21.3004 92.7732 20.6481 92.1188C19.9949 91.4633 19.6664 90.6605 19.6641 89.6772C19.6618 88.6957 19.9895 87.8942 20.6469 87.2391C21.3053 86.583 22.1079 86.2551 23.0874 86.2551H62.3201C63.3055 86.2551 64.1088 86.5835 64.7639 87.2385C65.4189 87.8935 65.7457 88.6951 65.7434 89.6772C65.7411 90.6605 65.4125 91.465 64.7587 92.1233C64.107 92.7796 63.3066 93.1063 62.3225 93.1016ZM85.8621 73.4852H85.8598H23.0874C22.102 73.4852 21.3004 73.1569 20.6481 72.5024C19.9949 71.8469 19.6664 71.0441 19.6641 70.0608C19.6618 69.0793 19.9895 68.2779 20.6469 67.6227C21.3053 66.9666 22.1079 66.6387 23.0874 66.6387H85.8598C86.8452 66.6387 87.6485 66.9671 88.3035 67.6221C88.9585 68.2771 89.2854 69.0787 89.2831 70.0608C89.2807 71.0442 88.9522 71.8486 88.2984 72.5069C87.6467 73.1632 86.8462 73.4899 85.8621 73.4852Z" fill="#B6BEC9" fill-opacity="0.8" stroke="#B6BEC9"/>
<path d="M28.8711 20.1709H83.132V40.0636C83.132 43.9295 79.998 47.0636 76.132 47.0636H35.8711C32.0051 47.0636 28.8711 43.9296 28.8711 40.0636V20.1709Z" fill="#B6BEC9"/>
<path d="M43.2664 11.0455C43.5799 8.5674 45.0567 6.2692 47.4099 4.5975C49.763 2.9258 52.8244 2 55.9992 2C59.174 2 62.2354 2.9258 64.5885 4.5975C66.9417 6.2692 68.4185 8.5674 68.732 11.0455L69.3943 16.2518C69.436 16.5697 69.4545 16.7277 69.48 16.884C69.8135 19.0332 70.7551 21.0968 72.2359 22.924L72.6805 23.4527L74.6745 25.7997C76.4971 27.9432 77.4073 29.0132 77.0089 29.876C76.9318 30.0407 76.8275 30.1933 76.6963 30.3338C76.0015 31.0732 74.3595 31.0732 71.078 31.0732H40.9204C37.6389 31.0732 35.9969 31.0732 35.3021 30.3338C35.1713 30.1936 35.0668 30.0395 34.9918 29.876C34.5911 29.0132 35.5013 27.9414 37.3215 25.7997L39.3178 23.4527L39.7625 22.924C41.2433 21.0968 42.1849 19.0332 42.5184 16.884C42.5416 16.7277 42.5647 16.5697 42.6041 16.2518L43.2664 11.0455Z" fill="#B6BEC9"/>
</svg>
