<svg width="237" height="127" viewBox="0 0 237 127" fill="none" xmlns="http://www.w3.org/2000/svg">
<g filter="url(#filter0_d_3973_7327)">
<rect x="4" width="229" height="97.2821" rx="10" fill="#F0F4FA"/>
<path d="M47.1673 94.2355L61.5478 94.28L76.6157 94.3709L30.9993 119L47.1673 94.2355Z" fill="#F0F4FA"/>
<path d="M42.8577 26.9072C45.5139 26.9072 47.428 29.3291 47.4475 33.1377C47.428 36.9854 45.5139 39.3877 42.8577 39.3877C40.1819 39.3877 38.2483 36.9854 38.2679 33.1377C38.2483 29.3291 40.1819 26.9072 42.8577 26.9072ZM42.8577 28.8604C41.3733 28.8604 40.3577 30.4424 40.3577 33.1377C40.3577 35.8525 41.3733 37.4346 42.8577 37.4346C44.3616 37.4346 45.3577 35.8525 45.3577 33.1377C45.3577 30.4424 44.3616 28.8604 42.8577 28.8604ZM51.9397 25.6182V32.3955H54.6546V34.2314H51.9397V43.2744H49.7718V25.6182H51.9397ZM62.096 28.6846C62.096 30.8721 63.5999 33.04 66.4124 33.9189L65.2991 35.5986C63.2971 34.9639 61.8421 33.626 61.0413 31.9463C60.2405 33.7725 58.7464 35.2275 56.6468 35.9307L55.5335 34.251C58.3655 33.2939 59.8889 30.9893 59.9085 28.6846V28.4697H56.0999V26.7314H65.8069V28.4697H62.096V28.6846ZM70.1038 25.6182V36.2627H67.9163V25.6182H70.1038ZM70.1038 37.083V43.2744H67.9163V38.8408H58.053V37.083H70.1038ZM91.3538 25.6182V29.5439H93.8147V31.3408H91.3538V35.0518H89.1858V25.6182H91.3538ZM86.0218 26.7119V28.4697H80.3186V32.8057C83.6389 32.7959 85.4846 32.6982 87.5843 32.2393L87.8186 33.9971C85.5139 34.4854 83.4436 34.583 79.596 34.583H78.1702V26.7119H86.0218ZM82.0764 35.9307V37.7471H89.1858V35.9307H91.3538V43.0205H79.9085V35.9307H82.0764ZM82.0764 41.2627H89.1858V39.4658H82.0764V41.2627ZM109.498 25.6377V38.665H107.33V34.2314H103.776V35.7939H95.5139V26.79H97.6819V29.6416H101.627V26.79H103.776V28.6846H107.33V25.6377H109.498ZM109.889 41.165V42.9229H97.8577V37.376H100.065V41.165H109.889ZM97.6819 34.0752H101.627V31.3213H97.6819V34.0752ZM103.776 32.4736H107.33V30.4424H103.776V32.4736ZM126.686 25.6182V43.2939H124.498V25.6182H126.686ZM117.174 26.9072C119.83 26.9072 121.764 29.3291 121.783 33.1377C121.764 36.9854 119.83 39.3877 117.174 39.3877C114.498 39.3877 112.565 36.9854 112.565 33.1377C112.565 29.3291 114.498 26.9072 117.174 26.9072ZM117.174 28.8604C115.67 28.8604 114.655 30.4424 114.655 33.1377C114.655 35.8525 115.67 37.4346 117.174 37.4346C118.658 37.4346 119.674 35.8525 119.674 33.1377C119.674 30.4424 118.658 28.8604 117.174 28.8604ZM138.033 35.9502V37.8447H140.358V35.9502H142.369V41.5557C144.44 40.6865 145.397 38.8994 145.397 37.2197V35.8135H147.565V37.2197C147.565 39.0557 148.502 40.833 150.69 41.5752L149.576 43.1963C148.024 42.6396 147.018 41.5654 146.471 40.2275C145.875 41.5264 144.869 42.6006 143.405 43.1963L142.369 41.6533V43.0596H136.002V35.9502H138.033ZM138.033 41.3994H140.358V39.4658H138.033V41.3994ZM138.932 26.3408C141.207 26.3408 143.004 27.6104 143.463 29.5244H146.647V25.6182H148.815V34.9736H146.647V31.3213H143.463C143.033 33.2842 141.217 34.583 138.932 34.583C136.217 34.583 134.264 32.8838 134.264 30.4424C134.264 28.0205 136.217 26.3408 138.932 26.3408ZM138.932 28.1377C137.408 28.1377 136.334 29.0361 136.334 30.4424C136.334 31.8682 137.408 32.8057 138.932 32.8057C140.416 32.8057 141.471 31.8682 141.491 30.4424C141.471 29.0361 140.416 28.1377 138.932 28.1377ZM156.139 26.9072C158.532 26.9072 160.299 28.8994 160.612 32.1221H163.971V25.6182H166.119V43.2939H163.971V33.8799H160.631C160.397 37.2881 158.6 39.3877 156.139 39.3877C153.483 39.3877 151.608 36.9854 151.608 33.1377C151.608 29.3291 153.483 26.9072 156.139 26.9072ZM156.139 28.8604C154.674 28.8604 153.678 30.4424 153.698 33.1377C153.678 35.8525 154.674 37.4346 156.139 37.4346C157.604 37.4346 158.58 35.8525 158.6 33.1377C158.58 30.4424 157.604 28.8604 156.139 28.8604ZM184.733 39.3486V41.126H168.6V39.3486H172.33V34.876C170.924 34.0752 170.074 32.8154 170.084 31.2432C170.065 28.4307 172.838 26.5752 176.627 26.5752C180.436 26.5752 183.209 28.4307 183.209 31.2432C183.209 32.7861 182.389 34.0264 181.022 34.8369V39.3486H184.733ZM176.627 28.2939C173.991 28.2939 172.194 29.4072 172.213 31.2432C172.194 33.0596 173.991 34.1924 176.627 34.1924C179.264 34.1924 181.08 33.0596 181.08 31.2432C181.08 29.4072 179.264 28.2939 176.627 28.2939ZM174.479 39.3486H178.815V35.6572C178.141 35.8135 177.408 35.8916 176.627 35.8916C175.866 35.8916 175.143 35.8135 174.479 35.6768V39.3486ZM188.033 41.6924C187.194 41.6924 186.51 41.0088 186.51 40.1689C186.51 39.3486 187.194 38.665 188.033 38.665C188.834 38.665 189.537 39.3486 189.537 40.1689C189.537 41.0088 188.834 41.6924 188.033 41.6924ZM50.1233 63.3682V65.1455H33.9905V63.3682H40.9632V59.3057H43.1311V63.3682H50.1233ZM48.7366 51.0439V52.8213H43.1702C43.2386 55.3604 45.8557 57.6943 49.4788 58.2314L48.6194 59.9502C45.6311 59.4033 43.1897 57.8311 42.0569 55.6338C40.9143 57.8604 38.4925 59.4912 35.553 60.0479L34.6936 58.3291C38.219 57.7334 40.8167 55.3604 40.885 52.8213H35.3382V51.0439H48.7366ZM65.4358 50.4775V51.8447C65.4358 53.2119 65.4358 54.7744 65.0061 56.8643H67.4085V58.6221H51.2757V56.8643H62.8186C63.2288 54.96 63.2679 53.5049 63.2679 52.2158H53.2679V50.4775H65.4358ZM65.4163 60.6729V67.0596H53.2093V60.6729H65.4163ZM55.3382 62.3721V65.3018H63.2679V62.3721H55.3382ZM77.5257 51.1416V59.4814H69.1663V51.1416H77.5257ZM71.2952 52.8799V57.7627H75.3968V52.8799H71.2952ZM82.4866 49.6182V54.7939H84.9475V56.6104H82.4866V62.5088H80.3186V49.6182H82.4866ZM83.1897 65.165V66.9229H71.178V61.2588H73.346V65.165H83.1897ZM105.338 49.6182V67.2744H103.151V49.6182H105.338ZM100.065 51.4932C100.065 56.7471 98.0335 61.2197 91.8421 64.1494L90.7093 62.4111C95.3284 60.2139 97.4768 57.2256 97.8577 53.2119H91.6077V51.4932H100.065ZM121.705 49.6182V56.3174H124.42V58.0947H121.705V67.2939H119.537V49.6182H121.705ZM116.862 51.2979V53.0557H110.768V61.1611C113.512 61.1611 115.68 61.0244 118.112 60.5947L118.366 62.4307C115.631 62.8994 113.248 62.9775 110.065 62.9775H108.6V51.2979H116.862ZM139.948 49.6182V67.2939H137.78V60.0479H134.557V58.2705H137.78V55.2432H134.616V53.4658H137.78V49.6182H139.948ZM133.619 51.1416V57.7432H127.955V61.4932C130.289 61.4736 132.321 61.376 134.694 61.0244L134.869 62.8018C132.155 63.2314 129.908 63.29 127.174 63.29H125.807V56.0439H131.491V52.8799H125.748V51.1416H133.619ZM158.541 59.4619V61.2197H151.53V67.2549H149.381V61.2197H142.448V59.4619H158.541ZM157.057 50.6143V52.333H151.764C151.891 54.2666 154.215 56.1221 157.701 56.5713L156.92 58.2705C153.912 57.8506 151.569 56.4736 150.494 54.5596C149.42 56.4736 147.076 57.8506 144.108 58.2705L143.287 56.5713C146.754 56.1221 149.078 54.2666 149.244 52.333H143.932V50.6143H157.057ZM165.241 54.2471C165.241 57.0986 166.237 60.0674 168.619 61.5713L167.428 63.2314C165.836 62.2744 164.801 60.624 164.225 58.6807C163.58 60.8193 162.448 62.626 160.787 63.6416L159.44 62.0205C161.998 60.458 163.151 57.3525 163.151 54.3447V51.1807H165.241V54.2471ZM174.967 49.6182V67.2744H172.877V49.6182H174.967ZM171.295 49.9307V66.415H169.244V57.4893H166.725V55.6924H169.244V49.9307H171.295ZM193.151 63.3486V65.126H177.018V63.3486H180.748V58.876C179.342 58.0752 178.492 56.8154 178.502 55.2432C178.483 52.4307 181.256 50.5752 185.045 50.5752C188.854 50.5752 191.627 52.4307 191.627 55.2432C191.627 56.7861 190.807 58.0264 189.44 58.8369V63.3486H193.151ZM185.045 52.2939C182.408 52.2939 180.612 53.4072 180.631 55.2432C180.612 57.0596 182.408 58.1924 185.045 58.1924C187.682 58.1924 189.498 57.0596 189.498 55.2432C189.498 53.4072 187.682 52.2939 185.045 52.2939ZM182.897 63.3486H187.233V59.6572C186.559 59.8135 185.826 59.8916 185.045 59.8916C184.283 59.8916 183.561 59.8135 182.897 59.6768V63.3486ZM196.451 65.6924C195.612 65.6924 194.928 65.0088 194.928 64.1689C194.928 63.3486 195.612 62.665 196.451 62.665C197.252 62.665 197.955 63.3486 197.955 64.1689C197.955 65.0088 197.252 65.6924 196.451 65.6924Z" fill="black"/>
</g>
<defs>
<filter id="filter0_d_3973_7327" x="0" y="0" width="237" height="127" filterUnits="userSpaceOnUse" color-interpolation-filters="sRGB">
<feFlood flood-opacity="0" result="BackgroundImageFix"/>
<feColorMatrix in="SourceAlpha" type="matrix" values="0 0 0 0 0 0 0 0 0 0 0 0 0 0 0 0 0 0 127 0" result="hardAlpha"/>
<feOffset dy="4"/>
<feGaussianBlur stdDeviation="2"/>
<feComposite in2="hardAlpha" operator="out"/>
<feColorMatrix type="matrix" values="0 0 0 0 0 0 0 0 0 0 0 0 0 0 0 0 0 0 0.09 0"/>
<feBlend mode="normal" in2="BackgroundImageFix" result="effect1_dropShadow_3973_7327"/>
<feBlend mode="normal" in="SourceGraphic" in2="effect1_dropShadow_3973_7327" result="shape"/>
</filter>
</defs>
</svg>
