<svg width="39" height="16" viewBox="0 0 39 16" fill="none" xmlns="http://www.w3.org/2000/svg">
<path d="M0.934602 1.90341C0.862626 1.8584 0.780637 1.83429 0.696964 1.83352C0.613291 1.83274 0.530916 1.85535 0.458205 1.89902C0.385495 1.9427 0.325041 2.00589 0.282983 2.08219C0.240926 2.15848 0.218765 2.24516 0.21875 2.33341V13.9117C0.218765 14 0.240926 14.0867 0.282983 14.163C0.325041 14.2393 0.385495 14.3025 0.458205 14.3461C0.530916 14.3898 0.613291 14.4124 0.696964 14.4116C0.780637 14.4109 0.862626 14.3868 0.934602 14.3417L10.1972 8.55258C10.268 8.5083 10.3266 8.44538 10.3673 8.36999C10.408 8.2946 10.4294 8.20933 10.4294 8.12258C10.4294 8.03582 10.408 7.95055 10.3673 7.87516C10.3266 7.79977 10.268 7.73685 10.1972 7.69258L0.934602 1.90341Z" fill="#3650FA"/>
<path d="M20.0498 4.12533H22.061V12.042H20.0498V4.12533ZM16.0273 6.50033H18.0386V9.66699H16.0273V6.50033ZM24.0722 0.166992H26.0835V14.417H24.0722V0.166992ZM28.0947 1.75033H30.1059V16.0003H28.0947V8.87533V1.75033ZM32.1171 4.12533H34.1284V12.042H32.1171V4.12533ZM36.1396 6.50033H38.1508V9.66699H36.1396V6.50033Z" fill="#3650FA"/>
</svg>
