<svg width="11" height="11" viewBox="0 0 11 11" fill="none" xmlns="http://www.w3.org/2000/svg">
<path d="M0 1.93243C0 1.41992 0.203595 0.928398 0.565996 0.565996C0.928398 0.203595 1.41992 0 1.93243 0H7.58108C8.09359 0 8.58512 0.203595 8.94752 0.565996C9.30992 0.928398 9.51351 1.41992 9.51351 1.93243V7.58108C9.51351 8.09359 9.30992 8.58512 8.94752 8.94752C8.58512 9.30992 8.09359 9.51351 7.58108 9.51351H1.93243C1.41992 9.51351 0.928398 9.30992 0.565996 8.94752C0.203595 8.58512 0 8.09359 0 7.58108V1.93243ZM7.30162 3.58541C7.38039 3.50087 7.42328 3.38906 7.42124 3.27353C7.4192 3.158 7.3724 3.04777 7.29069 2.96606C7.20899 2.88436 7.09876 2.83756 6.98323 2.83552C6.8677 2.83348 6.75589 2.87636 6.67135 2.95514L4.16216 5.46432L2.99081 4.29297C2.94998 4.24916 2.90075 4.21402 2.84605 4.18964C2.79135 4.16527 2.7323 4.15216 2.67242 4.15111C2.61254 4.15005 2.55306 4.16107 2.49754 4.18349C2.44201 4.20592 2.39157 4.23931 2.34922 4.28165C2.30687 4.324 2.27349 4.37444 2.25106 4.42997C2.22863 4.4855 2.21762 4.54497 2.21868 4.60485C2.21973 4.66473 2.23284 4.72378 2.25721 4.77848C2.28158 4.83318 2.31673 4.88242 2.36054 4.92324L3.84703 6.40973C3.93064 6.49324 4.04399 6.54015 4.16216 6.54015C4.28034 6.54015 4.39368 6.49324 4.4773 6.40973L7.30162 3.58541ZM2.08108 10.1081C2.25593 10.3817 2.49691 10.6069 2.78176 10.7628C3.06661 10.9186 3.38615 11.0002 3.71086 11H7.876C8.28625 11 8.69248 10.9192 9.0715 10.7622C9.45052 10.6052 9.79491 10.3751 10.085 10.085C10.3751 9.79491 10.6052 9.45052 10.7622 9.0715C10.9192 8.69248 11 8.28625 11 7.876V3.71086C11.0002 3.38609 10.9185 3.06652 10.7625 2.78166C10.6065 2.4968 10.3812 2.25586 10.1075 2.08108V7.876C10.1076 8.1691 10.0499 8.45934 9.93782 8.73015C9.82571 9.00095 9.66135 9.24702 9.45413 9.4543C9.24691 9.66158 9.00088 9.82601 8.7301 9.93819C8.45932 10.0504 8.1691 10.1081 7.876 10.1081H2.08108Z" fill="#2563ED"/>
</svg>
