<svg width="148" height="32" viewBox="0 0 148 32" fill="none" xmlns="http://www.w3.org/2000/svg">
<path d="M9.43007 7.94712H14.1451V23.8413H9.43007V7.94712ZM0 12.7154H4.71503V19.0731H0V12.7154ZM18.8601 0H23.5752V28.6096H18.8601V0ZM28.2902 3.17885H33.0052V31.7885H28.2902V3.17885ZM37.7203 7.94712H42.4353V23.8413H37.7203V7.94712ZM47.1503 12.7154H51.8654V19.0731H47.1503V12.7154Z" fill="#3650FA"/>
<path d="M108.904 7.94712H113.163V23.8413H108.904V7.94712ZM100.387 12.7154H104.645V19.0731H100.387V12.7154ZM117.422 0H121.68V28.6096H117.422V0ZM125.939 3.17885H130.198V31.7885H125.939V17.4837V3.17885ZM134.457 7.94712H138.715V23.8413H134.457V7.94712ZM142.974 12.7154H147.233V19.0731H142.974V12.7154Z" fill="#3650FA"/>
<rect x="63.5781" y="5.01953" width="23.4231" height="23.4231" rx="4" fill="#2563ED"/>
</svg>
